<mxfile host="app.diagrams.net" modified="2022-04-28T01:33:11.500Z" agent="5.0 (Windows NT 6.1; Win64; x64) AppleWebKit/537.36 (KHTML, like Gecko) Chrome/100.0.4896.127 Safari/537.36 Edg/100.0.1185.50" etag="vMOey5AUqB0XbZK6LJN-" version="17.4.6" type="github">
  <diagram id="sNJDBPW0BJDJ9a0vHnWY" name="第 1 页">
    <mxGraphModel dx="4642" dy="582" grid="1" gridSize="10" guides="1" tooltips="1" connect="1" arrows="1" fold="1" page="1" pageScale="1" pageWidth="3300" pageHeight="4681" math="0" shadow="0">
      <root>
        <mxCell id="0" />
        <mxCell id="1" parent="0" />
        <mxCell id="91EB2FIBTJb_fMzJIzi_-1" value="捷生活小程序" style="shape=umlLifeline;perimeter=lifelinePerimeter;whiteSpace=wrap;html=1;container=1;collapsible=0;recursiveResize=0;outlineConnect=0;" parent="1" vertex="1">
          <mxGeometry x="130" y="60" width="110" height="2620" as="geometry" />
        </mxCell>
        <mxCell id="91EB2FIBTJb_fMzJIzi_-28" value="" style="html=1;points=[];perimeter=orthogonalPerimeter;" parent="91EB2FIBTJb_fMzJIzi_-1" vertex="1">
          <mxGeometry x="50" y="120" width="10" height="440" as="geometry" />
        </mxCell>
        <mxCell id="91EB2FIBTJb_fMzJIzi_-35" value="" style="html=1;points=[];perimeter=orthogonalPerimeter;" parent="91EB2FIBTJb_fMzJIzi_-1" vertex="1">
          <mxGeometry x="50" y="670" width="10" height="180" as="geometry" />
        </mxCell>
        <mxCell id="91EB2FIBTJb_fMzJIzi_-45" value="" style="html=1;points=[];perimeter=orthogonalPerimeter;" parent="91EB2FIBTJb_fMzJIzi_-1" vertex="1">
          <mxGeometry x="50" y="1050" width="10" height="180" as="geometry" />
        </mxCell>
        <mxCell id="91EB2FIBTJb_fMzJIzi_-71" value="" style="html=1;points=[];perimeter=orthogonalPerimeter;" parent="91EB2FIBTJb_fMzJIzi_-1" vertex="1">
          <mxGeometry x="50" y="1520" width="10" height="180" as="geometry" />
        </mxCell>
        <mxCell id="MjJKI1_RTRv6Pet3emHM-1" value="" style="html=1;points=[];perimeter=orthogonalPerimeter;" vertex="1" parent="91EB2FIBTJb_fMzJIzi_-1">
          <mxGeometry x="50" y="1760" width="10" height="180" as="geometry" />
        </mxCell>
        <mxCell id="MjJKI1_RTRv6Pet3emHM-23" value="" style="html=1;points=[];perimeter=orthogonalPerimeter;" vertex="1" parent="91EB2FIBTJb_fMzJIzi_-1">
          <mxGeometry x="50" y="2160" width="10" height="180" as="geometry" />
        </mxCell>
        <mxCell id="91EB2FIBTJb_fMzJIzi_-2" value="捷生活服务端" style="shape=umlLifeline;perimeter=lifelinePerimeter;whiteSpace=wrap;html=1;container=1;collapsible=0;recursiveResize=0;outlineConnect=0;" parent="1" vertex="1">
          <mxGeometry x="350" y="60" width="110" height="2620" as="geometry" />
        </mxCell>
        <mxCell id="91EB2FIBTJb_fMzJIzi_-6" value="" style="html=1;points=[];perimeter=orthogonalPerimeter;" parent="91EB2FIBTJb_fMzJIzi_-2" vertex="1">
          <mxGeometry x="50" y="130" width="10" height="390" as="geometry" />
        </mxCell>
        <mxCell id="91EB2FIBTJb_fMzJIzi_-38" value="" style="html=1;points=[];perimeter=orthogonalPerimeter;" parent="91EB2FIBTJb_fMzJIzi_-2" vertex="1">
          <mxGeometry x="50" y="670" width="10" height="170" as="geometry" />
        </mxCell>
        <mxCell id="91EB2FIBTJb_fMzJIzi_-41" value="推送挂断" style="html=1;verticalAlign=bottom;endArrow=block;entryX=0;entryY=0;rounded=0;" parent="91EB2FIBTJb_fMzJIzi_-2" edge="1">
          <mxGeometry relative="1" as="geometry">
            <mxPoint x="-165.5" y="690.000000000001" as="sourcePoint" />
            <mxPoint x="50" y="690.000000000001" as="targetPoint" />
          </mxGeometry>
        </mxCell>
        <mxCell id="91EB2FIBTJb_fMzJIzi_-46" value="" style="html=1;points=[];perimeter=orthogonalPerimeter;" parent="91EB2FIBTJb_fMzJIzi_-2" vertex="1">
          <mxGeometry x="50" y="1030" width="10" height="170" as="geometry" />
        </mxCell>
        <mxCell id="91EB2FIBTJb_fMzJIzi_-69" value="" style="html=1;points=[];perimeter=orthogonalPerimeter;" parent="91EB2FIBTJb_fMzJIzi_-2" vertex="1">
          <mxGeometry x="50" y="1490" width="10" height="170" as="geometry" />
        </mxCell>
        <mxCell id="91EB2FIBTJb_fMzJIzi_-72" value="如果拉起失败 , 推送挂断" style="html=1;verticalAlign=bottom;endArrow=block;rounded=0;exitX=-0.2;exitY=0.797;exitDx=0;exitDy=0;exitPerimeter=0;" parent="91EB2FIBTJb_fMzJIzi_-2" source="91EB2FIBTJb_fMzJIzi_-59" edge="1">
          <mxGeometry width="80" relative="1" as="geometry">
            <mxPoint x="271" y="1520" as="sourcePoint" />
            <mxPoint x="60" y="1520" as="targetPoint" />
          </mxGeometry>
        </mxCell>
        <mxCell id="MjJKI1_RTRv6Pet3emHM-2" value="" style="html=1;points=[];perimeter=orthogonalPerimeter;" vertex="1" parent="91EB2FIBTJb_fMzJIzi_-2">
          <mxGeometry x="50" y="1780" width="10" height="170" as="geometry" />
        </mxCell>
        <mxCell id="MjJKI1_RTRv6Pet3emHM-21" value="" style="html=1;points=[];perimeter=orthogonalPerimeter;" vertex="1" parent="91EB2FIBTJb_fMzJIzi_-2">
          <mxGeometry x="50" y="2130" width="10" height="170" as="geometry" />
        </mxCell>
        <mxCell id="MjJKI1_RTRv6Pet3emHM-24" value="websocket推送挂断" style="html=1;verticalAlign=bottom;endArrow=block;rounded=0;entryX=1;entryY=0.056;entryDx=0;entryDy=0;entryPerimeter=0;" edge="1" parent="91EB2FIBTJb_fMzJIzi_-2">
          <mxGeometry width="80" relative="1" as="geometry">
            <mxPoint x="50" y="2180" as="sourcePoint" />
            <mxPoint x="-161" y="2180.08" as="targetPoint" />
          </mxGeometry>
        </mxCell>
        <mxCell id="91EB2FIBTJb_fMzJIzi_-3" value="人行云服务" style="shape=umlLifeline;perimeter=lifelinePerimeter;whiteSpace=wrap;html=1;container=1;collapsible=0;recursiveResize=0;outlineConnect=0;" parent="1" vertex="1">
          <mxGeometry x="580" y="60" width="110" height="2620" as="geometry" />
        </mxCell>
        <mxCell id="91EB2FIBTJb_fMzJIzi_-10" value="" style="html=1;points=[];perimeter=orthogonalPerimeter;" parent="91EB2FIBTJb_fMzJIzi_-3" vertex="1">
          <mxGeometry x="50" y="160" width="10" height="330" as="geometry" />
        </mxCell>
        <mxCell id="91EB2FIBTJb_fMzJIzi_-32" value="" style="html=1;points=[];perimeter=orthogonalPerimeter;" parent="91EB2FIBTJb_fMzJIzi_-3" vertex="1">
          <mxGeometry x="50" y="670" width="10" height="170" as="geometry" />
        </mxCell>
        <mxCell id="91EB2FIBTJb_fMzJIzi_-42" value="推送挂断" style="html=1;verticalAlign=bottom;endArrow=block;entryX=0;entryY=0;rounded=0;exitX=1.1;exitY=0.176;exitDx=0;exitDy=0;exitPerimeter=0;" parent="91EB2FIBTJb_fMzJIzi_-3" edge="1">
          <mxGeometry relative="1" as="geometry">
            <mxPoint x="-169" y="707.9200000000001" as="sourcePoint" />
            <mxPoint x="50" y="708.0000000000009" as="targetPoint" />
          </mxGeometry>
        </mxCell>
        <mxCell id="91EB2FIBTJb_fMzJIzi_-50" value="" style="html=1;points=[];perimeter=orthogonalPerimeter;" parent="91EB2FIBTJb_fMzJIzi_-3" vertex="1">
          <mxGeometry x="50" y="1000" width="10" height="170" as="geometry" />
        </mxCell>
        <mxCell id="91EB2FIBTJb_fMzJIzi_-59" value="" style="html=1;points=[];perimeter=orthogonalPerimeter;" parent="91EB2FIBTJb_fMzJIzi_-3" vertex="1">
          <mxGeometry x="50" y="1280" width="10" height="300" as="geometry" />
        </mxCell>
        <mxCell id="91EB2FIBTJb_fMzJIzi_-61" value="接听" style="html=1;verticalAlign=bottom;endArrow=block;rounded=0;exitX=-0.4;exitY=0.282;exitDx=0;exitDy=0;exitPerimeter=0;" parent="91EB2FIBTJb_fMzJIzi_-3" source="91EB2FIBTJb_fMzJIzi_-58" edge="1">
          <mxGeometry width="80" relative="1" as="geometry">
            <mxPoint x="460" y="1290" as="sourcePoint" />
            <mxPoint x="60" y="1290" as="targetPoint" />
          </mxGeometry>
        </mxCell>
        <mxCell id="MjJKI1_RTRv6Pet3emHM-4" value="" style="html=1;points=[];perimeter=orthogonalPerimeter;" vertex="1" parent="91EB2FIBTJb_fMzJIzi_-3">
          <mxGeometry x="50" y="1810" width="10" height="170" as="geometry" />
        </mxCell>
        <mxCell id="MjJKI1_RTRv6Pet3emHM-17" value="" style="html=1;points=[];perimeter=orthogonalPerimeter;" vertex="1" parent="91EB2FIBTJb_fMzJIzi_-3">
          <mxGeometry x="50" y="2130" width="10" height="170" as="geometry" />
        </mxCell>
        <mxCell id="91EB2FIBTJb_fMzJIzi_-4" value="坐席服务" style="shape=umlLifeline;perimeter=lifelinePerimeter;whiteSpace=wrap;html=1;container=1;collapsible=0;recursiveResize=0;outlineConnect=0;" parent="1" vertex="1">
          <mxGeometry x="1000" y="60" width="110" height="2620" as="geometry" />
        </mxCell>
        <mxCell id="91EB2FIBTJb_fMzJIzi_-22" value="" style="html=1;points=[];perimeter=orthogonalPerimeter;" parent="91EB2FIBTJb_fMzJIzi_-4" vertex="1">
          <mxGeometry x="50" y="340" width="10" height="80" as="geometry" />
        </mxCell>
        <mxCell id="91EB2FIBTJb_fMzJIzi_-30" value="" style="html=1;points=[];perimeter=orthogonalPerimeter;" parent="91EB2FIBTJb_fMzJIzi_-4" vertex="1">
          <mxGeometry x="50" y="680" width="10" height="160" as="geometry" />
        </mxCell>
        <mxCell id="91EB2FIBTJb_fMzJIzi_-48" value="" style="html=1;points=[];perimeter=orthogonalPerimeter;" parent="91EB2FIBTJb_fMzJIzi_-4" vertex="1">
          <mxGeometry x="50" y="960" width="10" height="170" as="geometry" />
        </mxCell>
        <mxCell id="91EB2FIBTJb_fMzJIzi_-58" value="" style="html=1;points=[];perimeter=orthogonalPerimeter;" parent="91EB2FIBTJb_fMzJIzi_-4" vertex="1">
          <mxGeometry x="50" y="1240" width="10" height="170" as="geometry" />
        </mxCell>
        <mxCell id="91EB2FIBTJb_fMzJIzi_-65" value="" style="html=1;points=[];perimeter=orthogonalPerimeter;" parent="91EB2FIBTJb_fMzJIzi_-4" vertex="1">
          <mxGeometry x="50" y="1450" width="10" height="170" as="geometry" />
        </mxCell>
        <mxCell id="MjJKI1_RTRv6Pet3emHM-7" value="" style="html=1;points=[];perimeter=orthogonalPerimeter;" vertex="1" parent="91EB2FIBTJb_fMzJIzi_-4">
          <mxGeometry x="50" y="1820" width="10" height="170" as="geometry" />
        </mxCell>
        <mxCell id="MjJKI1_RTRv6Pet3emHM-15" value="" style="html=1;points=[];perimeter=orthogonalPerimeter;" vertex="1" parent="91EB2FIBTJb_fMzJIzi_-4">
          <mxGeometry x="50" y="2111" width="10" height="170" as="geometry" />
        </mxCell>
        <mxCell id="91EB2FIBTJb_fMzJIzi_-5" value="坐席App / web" style="shape=umlLifeline;perimeter=lifelinePerimeter;whiteSpace=wrap;html=1;container=1;collapsible=0;recursiveResize=0;outlineConnect=0;" parent="1" vertex="1">
          <mxGeometry x="1200" y="60" width="110" height="2620" as="geometry" />
        </mxCell>
        <mxCell id="91EB2FIBTJb_fMzJIzi_-25" value="" style="html=1;points=[];perimeter=orthogonalPerimeter;" parent="91EB2FIBTJb_fMzJIzi_-5" vertex="1">
          <mxGeometry x="50" y="360" width="10" height="80" as="geometry" />
        </mxCell>
        <mxCell id="91EB2FIBTJb_fMzJIzi_-29" value="" style="html=1;points=[];perimeter=orthogonalPerimeter;" parent="91EB2FIBTJb_fMzJIzi_-5" vertex="1">
          <mxGeometry x="50" y="710" width="10" height="80" as="geometry" />
        </mxCell>
        <mxCell id="91EB2FIBTJb_fMzJIzi_-47" value="" style="html=1;points=[];perimeter=orthogonalPerimeter;" parent="91EB2FIBTJb_fMzJIzi_-5" vertex="1">
          <mxGeometry x="50" y="930" width="10" height="170" as="geometry" />
        </mxCell>
        <mxCell id="91EB2FIBTJb_fMzJIzi_-34" value="挂断" style="html=1;verticalAlign=bottom;endArrow=block;rounded=0;" parent="91EB2FIBTJb_fMzJIzi_-5" edge="1">
          <mxGeometry width="80" relative="1" as="geometry">
            <mxPoint x="50" y="977.5" as="sourcePoint" />
            <mxPoint x="-145.5" y="977.5" as="targetPoint" />
          </mxGeometry>
        </mxCell>
        <mxCell id="91EB2FIBTJb_fMzJIzi_-57" value="" style="html=1;points=[];perimeter=orthogonalPerimeter;" parent="91EB2FIBTJb_fMzJIzi_-5" vertex="1">
          <mxGeometry x="50" y="1220" width="10" height="170" as="geometry" />
        </mxCell>
        <mxCell id="91EB2FIBTJb_fMzJIzi_-66" value="" style="html=1;points=[];perimeter=orthogonalPerimeter;" parent="91EB2FIBTJb_fMzJIzi_-5" vertex="1">
          <mxGeometry x="50" y="1450" width="10" height="170" as="geometry" />
        </mxCell>
        <mxCell id="MjJKI1_RTRv6Pet3emHM-8" value="" style="html=1;points=[];perimeter=orthogonalPerimeter;" vertex="1" parent="91EB2FIBTJb_fMzJIzi_-5">
          <mxGeometry x="50" y="1850" width="10" height="170" as="geometry" />
        </mxCell>
        <mxCell id="MjJKI1_RTRv6Pet3emHM-10" value="socket推送挂断指令" style="html=1;verticalAlign=bottom;endArrow=block;rounded=0;entryX=-0.2;entryY=0.288;entryDx=0;entryDy=0;entryPerimeter=0;exitX=1;exitY=0.282;exitDx=0;exitDy=0;exitPerimeter=0;" edge="1" parent="91EB2FIBTJb_fMzJIzi_-5">
          <mxGeometry width="80" relative="1" as="geometry">
            <mxPoint x="-140" y="1860" as="sourcePoint" />
            <mxPoint x="48" y="1861.02" as="targetPoint" />
          </mxGeometry>
        </mxCell>
        <mxCell id="MjJKI1_RTRv6Pet3emHM-14" value="" style="html=1;points=[];perimeter=orthogonalPerimeter;" vertex="1" parent="91EB2FIBTJb_fMzJIzi_-5">
          <mxGeometry x="50" y="2100" width="10" height="170" as="geometry" />
        </mxCell>
        <mxCell id="91EB2FIBTJb_fMzJIzi_-7" value="发起呼叫" style="html=1;verticalAlign=bottom;endArrow=block;entryX=0;entryY=0;rounded=0;" parent="1" source="91EB2FIBTJb_fMzJIzi_-1" target="91EB2FIBTJb_fMzJIzi_-6" edge="1">
          <mxGeometry relative="1" as="geometry">
            <mxPoint x="330" y="190" as="sourcePoint" />
          </mxGeometry>
        </mxCell>
        <mxCell id="91EB2FIBTJb_fMzJIzi_-8" value="呼叫成功返回房间号 / 呼叫失败" style="html=1;verticalAlign=bottom;endArrow=open;dashed=1;endSize=8;exitX=0;exitY=0.95;rounded=0;" parent="1" source="91EB2FIBTJb_fMzJIzi_-6" target="91EB2FIBTJb_fMzJIzi_-1" edge="1">
          <mxGeometry relative="1" as="geometry">
            <mxPoint x="330" y="266" as="targetPoint" />
          </mxGeometry>
        </mxCell>
        <mxCell id="91EB2FIBTJb_fMzJIzi_-15" value="信令" style="shape=umlLifeline;perimeter=lifelinePerimeter;whiteSpace=wrap;html=1;container=1;collapsible=0;recursiveResize=0;outlineConnect=0;" parent="1" vertex="1">
          <mxGeometry x="800" y="60" width="110" height="2620" as="geometry" />
        </mxCell>
        <mxCell id="91EB2FIBTJb_fMzJIzi_-17" value="" style="html=1;points=[];perimeter=orthogonalPerimeter;" parent="91EB2FIBTJb_fMzJIzi_-15" vertex="1">
          <mxGeometry x="50" y="190" width="10" height="80" as="geometry" />
        </mxCell>
        <mxCell id="91EB2FIBTJb_fMzJIzi_-43" value="推送挂断" style="html=1;verticalAlign=bottom;endArrow=block;rounded=0;" parent="91EB2FIBTJb_fMzJIzi_-15" target="91EB2FIBTJb_fMzJIzi_-4" edge="1">
          <mxGeometry relative="1" as="geometry">
            <mxPoint x="-165.5" y="720.0000000000009" as="sourcePoint" />
            <mxPoint x="50" y="720.0000000000009" as="targetPoint" />
          </mxGeometry>
        </mxCell>
        <mxCell id="91EB2FIBTJb_fMzJIzi_-62" value="" style="html=1;points=[];perimeter=orthogonalPerimeter;" parent="91EB2FIBTJb_fMzJIzi_-15" vertex="1">
          <mxGeometry x="50" y="1330" width="10" height="110" as="geometry" />
        </mxCell>
        <mxCell id="91EB2FIBTJb_fMzJIzi_-64" value="拉起成功 / 失败" style="html=1;verticalAlign=bottom;endArrow=block;entryX=0;entryY=0;rounded=0;" parent="91EB2FIBTJb_fMzJIzi_-15" edge="1">
          <mxGeometry relative="1" as="geometry">
            <mxPoint x="50" y="1430.000000000001" as="sourcePoint" />
            <mxPoint x="-159" y="1430.42" as="targetPoint" />
          </mxGeometry>
        </mxCell>
        <mxCell id="MjJKI1_RTRv6Pet3emHM-6" value="" style="html=1;points=[];perimeter=orthogonalPerimeter;" vertex="1" parent="91EB2FIBTJb_fMzJIzi_-15">
          <mxGeometry x="50" y="1870" width="10" height="80" as="geometry" />
        </mxCell>
        <mxCell id="MjJKI1_RTRv6Pet3emHM-11" value="发送 bye 指令 挂断音视频流" style="html=1;verticalAlign=bottom;endArrow=block;entryX=0;entryY=0;rounded=0;" edge="1" parent="91EB2FIBTJb_fMzJIzi_-15">
          <mxGeometry relative="1" as="geometry">
            <mxPoint x="-160" y="1880.42" as="sourcePoint" />
            <mxPoint x="49" y="1880.000000000001" as="targetPoint" />
          </mxGeometry>
        </mxCell>
        <mxCell id="MjJKI1_RTRv6Pet3emHM-19" value="" style="html=1;points=[];perimeter=orthogonalPerimeter;" vertex="1" parent="91EB2FIBTJb_fMzJIzi_-15">
          <mxGeometry x="50" y="2190" width="10" height="80" as="geometry" />
        </mxCell>
        <mxCell id="MjJKI1_RTRv6Pet3emHM-20" value="发送 bye 指令 挂断音视频流" style="html=1;verticalAlign=bottom;endArrow=block;entryX=0;entryY=0;rounded=0;" edge="1" parent="91EB2FIBTJb_fMzJIzi_-15">
          <mxGeometry relative="1" as="geometry">
            <mxPoint x="260" y="2200" as="sourcePoint" />
            <mxPoint x="60" y="2200.42" as="targetPoint" />
          </mxGeometry>
        </mxCell>
        <mxCell id="91EB2FIBTJb_fMzJIzi_-18" value="获取微信房间号" style="html=1;verticalAlign=bottom;endArrow=block;entryX=0;entryY=0;rounded=0;" parent="1" source="91EB2FIBTJb_fMzJIzi_-10" target="91EB2FIBTJb_fMzJIzi_-17" edge="1">
          <mxGeometry relative="1" as="geometry">
            <mxPoint x="650" y="250" as="sourcePoint" />
          </mxGeometry>
        </mxCell>
        <mxCell id="91EB2FIBTJb_fMzJIzi_-19" value="返回房间号 / 查询异常" style="html=1;verticalAlign=bottom;endArrow=open;dashed=1;endSize=8;exitX=0;exitY=0.95;rounded=0;" parent="1" source="91EB2FIBTJb_fMzJIzi_-17" edge="1">
          <mxGeometry relative="1" as="geometry">
            <mxPoint x="640" y="326" as="targetPoint" />
          </mxGeometry>
        </mxCell>
        <mxCell id="91EB2FIBTJb_fMzJIzi_-23" value="推送事件信息" style="html=1;verticalAlign=bottom;endArrow=block;entryX=0;entryY=0;rounded=0;" parent="1" target="91EB2FIBTJb_fMzJIzi_-22" edge="1">
          <mxGeometry relative="1" as="geometry">
            <mxPoint x="640" y="400" as="sourcePoint" />
          </mxGeometry>
        </mxCell>
        <mxCell id="91EB2FIBTJb_fMzJIzi_-24" value="推送成功 / 推送失败&amp;nbsp;" style="html=1;verticalAlign=bottom;endArrow=open;dashed=1;endSize=8;exitX=0;exitY=0.95;rounded=0;" parent="1" source="91EB2FIBTJb_fMzJIzi_-22" target="91EB2FIBTJb_fMzJIzi_-3" edge="1">
          <mxGeometry relative="1" as="geometry">
            <mxPoint x="980" y="476" as="targetPoint" />
          </mxGeometry>
        </mxCell>
        <mxCell id="91EB2FIBTJb_fMzJIzi_-11" value="发起呼叫" style="html=1;verticalAlign=bottom;endArrow=block;entryX=0;entryY=0;rounded=0;" parent="1" source="91EB2FIBTJb_fMzJIzi_-2" target="91EB2FIBTJb_fMzJIzi_-10" edge="1">
          <mxGeometry relative="1" as="geometry">
            <mxPoint x="560" y="220" as="sourcePoint" />
          </mxGeometry>
        </mxCell>
        <mxCell id="91EB2FIBTJb_fMzJIzi_-12" value="呼叫成功返回房号号 / 呼叫失败" style="html=1;verticalAlign=bottom;endArrow=open;dashed=1;endSize=8;exitX=0;exitY=0.95;rounded=0;entryX=1.2;entryY=0.885;entryDx=0;entryDy=0;entryPerimeter=0;" parent="1" source="91EB2FIBTJb_fMzJIzi_-10" target="91EB2FIBTJb_fMzJIzi_-6" edge="1">
          <mxGeometry relative="1" as="geometry">
            <mxPoint x="420" y="540" as="targetPoint" />
          </mxGeometry>
        </mxCell>
        <mxCell id="91EB2FIBTJb_fMzJIzi_-36" value="&lt;font style=&quot;font-size: 14px&quot;&gt;发起呼叫&lt;/font&gt;" style="text;html=1;align=center;verticalAlign=middle;resizable=0;points=[];autosize=1;strokeColor=none;fillColor=none;" parent="1" vertex="1">
          <mxGeometry x="30" y="230" width="70" height="20" as="geometry" />
        </mxCell>
        <mxCell id="91EB2FIBTJb_fMzJIzi_-37" value="&lt;font style=&quot;font-size: 14px&quot;&gt;被叫未接听主叫方挂断&lt;/font&gt;" style="text;html=1;align=center;verticalAlign=middle;resizable=0;points=[];autosize=1;strokeColor=none;fillColor=none;" parent="1" vertex="1">
          <mxGeometry x="10" y="690" width="160" height="20" as="geometry" />
        </mxCell>
        <mxCell id="91EB2FIBTJb_fMzJIzi_-40" value="socket 推送" style="html=1;verticalAlign=bottom;endArrow=block;rounded=0;fontSize=14;" parent="1" target="91EB2FIBTJb_fMzJIzi_-5" edge="1">
          <mxGeometry width="80" relative="1" as="geometry">
            <mxPoint x="1060" y="440" as="sourcePoint" />
            <mxPoint x="1140" y="440" as="targetPoint" />
          </mxGeometry>
        </mxCell>
        <mxCell id="91EB2FIBTJb_fMzJIzi_-44" value="&lt;font style=&quot;font-size: 14px&quot;&gt;被叫未接听被叫方挂断&lt;/font&gt;" style="text;html=1;align=center;verticalAlign=middle;resizable=0;points=[];autosize=1;strokeColor=none;fillColor=none;" parent="1" vertex="1">
          <mxGeometry x="10" y="1030" width="160" height="20" as="geometry" />
        </mxCell>
        <mxCell id="91EB2FIBTJb_fMzJIzi_-52" value="socket推送挂断指令" style="html=1;verticalAlign=bottom;endArrow=block;rounded=0;" parent="1" edge="1">
          <mxGeometry width="80" relative="1" as="geometry">
            <mxPoint x="1064.5" y="814" as="sourcePoint" />
            <mxPoint x="1260" y="814" as="targetPoint" />
          </mxGeometry>
        </mxCell>
        <mxCell id="91EB2FIBTJb_fMzJIzi_-53" value="挂断" style="html=1;verticalAlign=bottom;endArrow=block;rounded=0;" parent="1" target="91EB2FIBTJb_fMzJIzi_-3" edge="1">
          <mxGeometry width="80" relative="1" as="geometry">
            <mxPoint x="1055.5" y="1070" as="sourcePoint" />
            <mxPoint x="860" y="1070" as="targetPoint" />
          </mxGeometry>
        </mxCell>
        <mxCell id="91EB2FIBTJb_fMzJIzi_-54" value="挂断" style="html=1;verticalAlign=bottom;endArrow=block;rounded=0;" parent="1" target="91EB2FIBTJb_fMzJIzi_-2" edge="1">
          <mxGeometry width="80" relative="1" as="geometry">
            <mxPoint x="635.5" y="1100" as="sourcePoint" />
            <mxPoint x="440" y="1100" as="targetPoint" />
          </mxGeometry>
        </mxCell>
        <mxCell id="91EB2FIBTJb_fMzJIzi_-55" value="websocket推送挂断" style="html=1;verticalAlign=bottom;endArrow=block;rounded=0;entryX=1;entryY=0.056;entryDx=0;entryDy=0;entryPerimeter=0;" parent="1" target="91EB2FIBTJb_fMzJIzi_-45" edge="1">
          <mxGeometry width="80" relative="1" as="geometry">
            <mxPoint x="401" y="1120" as="sourcePoint" />
            <mxPoint x="200" y="1120" as="targetPoint" />
          </mxGeometry>
        </mxCell>
        <mxCell id="91EB2FIBTJb_fMzJIzi_-56" value="&lt;span style=&quot;font-size: 14px&quot;&gt;&amp;nbsp;被叫方接听&lt;/span&gt;" style="text;html=1;align=center;verticalAlign=middle;resizable=0;points=[];autosize=1;strokeColor=none;fillColor=none;" parent="1" vertex="1">
          <mxGeometry x="10" y="1470" width="90" height="20" as="geometry" />
        </mxCell>
        <mxCell id="91EB2FIBTJb_fMzJIzi_-60" value="接听" style="html=1;verticalAlign=bottom;endArrow=block;rounded=0;" parent="1" edge="1">
          <mxGeometry width="80" relative="1" as="geometry">
            <mxPoint x="1255.5" y="1320" as="sourcePoint" />
            <mxPoint x="1060" y="1320" as="targetPoint" />
          </mxGeometry>
        </mxCell>
        <mxCell id="91EB2FIBTJb_fMzJIzi_-63" value="invite_trtc拉起音视频" style="html=1;verticalAlign=bottom;endArrow=block;entryX=0;entryY=0;rounded=0;" parent="1" edge="1">
          <mxGeometry relative="1" as="geometry">
            <mxPoint x="640" y="1400" as="sourcePoint" />
            <mxPoint x="849" y="1399.5800000000008" as="targetPoint" />
          </mxGeometry>
        </mxCell>
        <mxCell id="91EB2FIBTJb_fMzJIzi_-67" value="如果拉起失败 , 推送挂断" style="html=1;verticalAlign=bottom;endArrow=block;rounded=0;exitX=1.1;exitY=0.67;exitDx=0;exitDy=0;exitPerimeter=0;" parent="1" source="91EB2FIBTJb_fMzJIzi_-59" edge="1">
          <mxGeometry relative="1" as="geometry">
            <mxPoint x="650" y="1540" as="sourcePoint" />
            <mxPoint x="1050" y="1540.000000000001" as="targetPoint" />
          </mxGeometry>
        </mxCell>
        <mxCell id="91EB2FIBTJb_fMzJIzi_-68" value="socket推送挂断指令" style="html=1;verticalAlign=bottom;endArrow=block;rounded=0;entryX=-0.2;entryY=0.288;entryDx=0;entryDy=0;entryPerimeter=0;exitX=1;exitY=0.282;exitDx=0;exitDy=0;exitPerimeter=0;" parent="1" source="91EB2FIBTJb_fMzJIzi_-65" target="91EB2FIBTJb_fMzJIzi_-66" edge="1">
          <mxGeometry width="80" relative="1" as="geometry">
            <mxPoint x="1064.5" y="1560" as="sourcePoint" />
            <mxPoint x="1240" y="1560" as="targetPoint" />
          </mxGeometry>
        </mxCell>
        <mxCell id="91EB2FIBTJb_fMzJIzi_-70" value="" style="html=1;points=[];perimeter=orthogonalPerimeter;" parent="1" vertex="1">
          <mxGeometry x="180" y="1110" width="10" height="180" as="geometry" />
        </mxCell>
        <mxCell id="91EB2FIBTJb_fMzJIzi_-73" value="websocket推送挂断" style="html=1;verticalAlign=bottom;endArrow=block;rounded=0;entryX=1;entryY=0.056;entryDx=0;entryDy=0;entryPerimeter=0;" parent="1" edge="1">
          <mxGeometry width="80" relative="1" as="geometry">
            <mxPoint x="401" y="1610" as="sourcePoint" />
            <mxPoint x="190" y="1610.08" as="targetPoint" />
          </mxGeometry>
        </mxCell>
        <mxCell id="91EB2FIBTJb_fMzJIzi_-74" value="&lt;span style=&quot;font-size: 14px&quot;&gt;&amp;nbsp;被叫方接听后, 主叫方挂断&lt;/span&gt;" style="text;html=1;align=center;verticalAlign=middle;resizable=0;points=[];autosize=1;strokeColor=none;fillColor=none;" parent="1" vertex="1">
          <mxGeometry x="-50" y="1820" width="180" height="20" as="geometry" />
        </mxCell>
        <mxCell id="MjJKI1_RTRv6Pet3emHM-3" value="推送挂断" style="html=1;verticalAlign=bottom;endArrow=block;entryX=0;entryY=0;rounded=0;" edge="1" parent="1">
          <mxGeometry relative="1" as="geometry">
            <mxPoint x="190" y="1850.000000000001" as="sourcePoint" />
            <mxPoint x="405.5" y="1850.000000000001" as="targetPoint" />
          </mxGeometry>
        </mxCell>
        <mxCell id="MjJKI1_RTRv6Pet3emHM-5" value="推送挂断" style="html=1;verticalAlign=bottom;endArrow=block;entryX=0;entryY=0;rounded=0;" edge="1" parent="1">
          <mxGeometry relative="1" as="geometry">
            <mxPoint x="410" y="1880.000000000001" as="sourcePoint" />
            <mxPoint x="625.5" y="1880.000000000001" as="targetPoint" />
          </mxGeometry>
        </mxCell>
        <mxCell id="MjJKI1_RTRv6Pet3emHM-9" value="推送挂断" style="html=1;verticalAlign=bottom;endArrow=block;rounded=0;" edge="1" parent="1" target="91EB2FIBTJb_fMzJIzi_-4">
          <mxGeometry relative="1" as="geometry">
            <mxPoint x="638.5" y="1890.000000000001" as="sourcePoint" />
            <mxPoint x="998.5" y="1890.000000000001" as="targetPoint" />
          </mxGeometry>
        </mxCell>
        <mxCell id="MjJKI1_RTRv6Pet3emHM-13" value="&lt;span style=&quot;font-size: 14px&quot;&gt;&amp;nbsp;被叫方接听后, 被叫方挂断&lt;/span&gt;" style="text;html=1;align=center;verticalAlign=middle;resizable=0;points=[];autosize=1;strokeColor=none;fillColor=none;" vertex="1" parent="1">
          <mxGeometry x="-50" y="2140" width="180" height="20" as="geometry" />
        </mxCell>
        <mxCell id="MjJKI1_RTRv6Pet3emHM-16" value="挂断" style="html=1;verticalAlign=bottom;endArrow=block;rounded=0;" edge="1" parent="1">
          <mxGeometry width="80" relative="1" as="geometry">
            <mxPoint x="1255.5" y="2190" as="sourcePoint" />
            <mxPoint x="1060" y="2190" as="targetPoint" />
          </mxGeometry>
        </mxCell>
        <mxCell id="MjJKI1_RTRv6Pet3emHM-18" value="挂断" style="html=1;verticalAlign=bottom;endArrow=block;rounded=0;exitX=-0.4;exitY=0.282;exitDx=0;exitDy=0;exitPerimeter=0;" edge="1" parent="1">
          <mxGeometry width="80" relative="1" as="geometry">
            <mxPoint x="1046" y="2200" as="sourcePoint" />
            <mxPoint x="640" y="2202.06" as="targetPoint" />
          </mxGeometry>
        </mxCell>
        <mxCell id="MjJKI1_RTRv6Pet3emHM-22" value="推送挂断" style="html=1;verticalAlign=bottom;endArrow=block;entryX=0;entryY=0;rounded=0;" edge="1" parent="1">
          <mxGeometry relative="1" as="geometry">
            <mxPoint x="625.5" y="2220.000000000001" as="sourcePoint" />
            <mxPoint x="410" y="2220.000000000001" as="targetPoint" />
          </mxGeometry>
        </mxCell>
      </root>
    </mxGraphModel>
  </diagram>
</mxfile>
